<svg width="103" height="40" viewBox="0 0 103 40" fill="none" xmlns="http://www.w3.org/2000/svg" aria-labelledby="logo-description"><title>Skiff logo</title><desc id="logo-description">Skiff lockup logo</desc><g clip-path="url(#clip0_281_4998)"><path d="M54.7705 31.3333C51.8076 31.3333 49.5261 30.7111 47.9261 29.4666C47.1236 28.8327 46.4777 28.0226 46.0384 27.0991C45.5992 26.1755 45.3782 25.1633 45.3928 24.1407H49.7039C49.724 24.6806 49.8585 25.21 50.0986 25.694C50.3386 26.178 50.6788 26.6055 51.0965 26.9481C52.1461 27.5782 53.3641 27.8705 54.5853 27.7852C55.125 27.7881 55.6636 27.7359 56.1928 27.6296C56.6626 27.5422 57.1154 27.3797 57.5335 27.1481C57.9058 26.9358 58.223 26.6389 58.4594 26.2815C58.6989 25.8951 58.82 25.447 58.8076 24.9926C58.8253 24.5263 58.6929 24.0667 58.4298 23.6815C58.142 23.3138 57.7715 23.0194 57.3483 22.8222C56.8108 22.561 56.2472 22.3574 55.6668 22.2148C55.0076 22.0444 54.2668 21.8666 53.4446 21.6814C52.4668 21.4592 51.5335 21.2074 50.6298 20.9407C49.7896 20.6943 48.9925 20.3195 48.2668 19.8296C47.5894 19.3673 47.0289 18.7535 46.6298 18.037C46.1834 17.176 45.969 16.2135 46.0076 15.2444C45.9875 14.2676 46.2008 13.3 46.6298 12.4222C47.0366 11.6187 47.6281 10.9232 48.3557 10.3926C49.1472 9.82114 50.0393 9.40398 50.9853 9.16293C52.0731 8.87738 53.1941 8.73788 54.3187 8.74812C56.4334 8.63748 58.5229 9.24866 60.2446 10.4814C60.9983 11.0907 61.6102 11.857 62.0375 12.727C62.4647 13.5969 62.6972 14.5495 62.7187 15.5185H58.5039C58.4732 15.0356 58.3373 14.5653 58.1057 14.1405C57.8741 13.7157 57.5524 13.3466 57.1631 13.0592C56.3217 12.4948 55.3239 12.2097 54.3113 12.2444C53.3131 12.1935 52.3218 12.4355 51.4594 12.9407C51.1348 13.1281 50.8658 13.3982 50.6797 13.7236C50.4936 14.0489 50.3971 14.4178 50.4002 14.7926C50.3846 15.181 50.4852 15.5652 50.6891 15.8963C50.9134 16.2223 51.2133 16.4891 51.5631 16.674C52.0326 16.924 52.5299 17.1179 53.0446 17.2518C53.6298 17.4148 54.3335 17.5852 55.1409 17.7629C56.252 18.0074 57.2965 18.274 58.2816 18.5703C59.1935 18.8324 60.062 19.2267 60.8594 19.7407C61.5843 20.2064 62.1844 20.8421 62.6076 21.5926C63.0638 22.4824 63.2832 23.4748 63.2446 24.474C63.2616 25.4855 63.0436 26.4871 62.6076 27.4C62.1964 28.2463 61.5926 28.9846 60.8446 29.5555C60.0461 30.1598 59.1417 30.6095 58.1779 30.8815C57.0699 31.1958 55.9222 31.348 54.7705 31.3333Z" fill="black"></path><path d="M70.1037 23.7479L68.3186 25.5998V30.8442H64.2148V9.14795H68.3186V21.1628L73.8371 15.2368H78.763L73.0297 21.1628L79.4667 30.7924H74.4519L70.1037 23.7479Z" fill="black"></path><path d="M79.8297 9.14795H83.9482V12.8517H79.8223L79.8297 9.14795ZM79.8297 15.2739H83.9482V30.8294H79.8223L79.8297 15.2739Z" fill="black"></path><path d="M99.9186 14.1259V12.3111H102.711V9.17777C101.794 9.06574 100.866 9.06574 99.9482 9.17777C99.1646 9.26995 98.4082 9.52207 97.726 9.91851C97.116 10.2911 96.6171 10.8206 96.2816 11.4518C95.9275 12.2058 95.7623 13.0346 95.8001 13.8666V15.2592H91.1557V12.2963H93.7927V9.28146C92.9071 9.17331 92.0116 9.17331 91.126 9.28146C90.3645 9.37881 89.631 9.63089 88.9705 10.0222C88.3633 10.3937 87.869 10.9239 87.5408 11.5555C87.1782 12.2995 87.0027 13.1209 87.0297 13.9481V15.2222H84.9038V18.0815H87.0297V30.7926H91.1557V18.1333H95.8001V30.8444H99.926V18.1333H102.719V15.274H99.926L99.9186 14.1259Z" fill="black"></path><path d="M25.7113 2.05188C27.4601 2.01949 29.1946 2.37097 30.7928 3.08152C29.5959 2.32362 28.3191 1.70008 26.9854 1.22225C23.7071 0.0236141 20.1736 -0.30277 16.7312 0.275075C13.2888 0.85292 10.0556 2.31518 7.34836 4.51856C7.17799 4.64448 6.72614 5.05929 6.54836 5.20744C6.37058 5.35559 5.96318 5.75559 5.80762 5.94818C5.65207 6.14077 5.30392 6.47411 5.06688 6.68892C4.82984 6.90374 4.54096 7.30373 4.3854 7.49633L3.85207 8.19263C3.71133 8.38522 3.3854 8.86671 3.25207 9.0593C3.11873 9.25189 3.02984 9.42225 2.97058 9.51114C2.91132 9.60003 2.77799 9.82225 2.74096 9.88151C2.70392 9.94077 2.35577 10.5778 2.26688 10.726C2.17799 10.8741 1.91133 11.4667 1.80763 11.6741L1.45948 12.4815C1.45948 12.5704 1.19281 13.2223 1.14837 13.3037C1.10392 13.3852 0.992805 13.7778 0.933546 13.9704C0.80762 14.3408 0.696515 14.7704 0.592811 15.1482C0.533552 15.3778 0.415035 15.9482 0.363184 16.1778V16.3556C-0.500932 21.0698 0.347591 25.9377 2.75577 30.0815C3.00022 30.4815 3.33355 31.0297 3.61504 31.4074C3.71874 31.563 3.90393 31.8297 4.02244 31.9778L4.45206 32.5408L5.13356 33.3408L5.8743 34.0815C6.01504 34.2075 6.23725 34.4445 6.3854 34.563L6.65207 34.7926L6.71874 34.8445L6.78541 34.8963L6.91873 35.0075C7.0891 35.1482 7.30393 35.2963 7.4817 35.4223L7.62245 35.5186L7.77059 35.6148C7.92615 35.7185 8.20022 35.8889 8.37059 35.9778C8.54096 36.0667 8.59281 36.1111 8.6743 36.1482L9.14095 36.3778C9.2891 36.4519 9.4817 36.5334 9.62244 36.5926C9.97059 36.7334 10.3632 36.8593 10.6891 36.9778C10.8817 37.0223 11.0891 37.0889 11.2817 37.1408L11.7928 37.2519L12.3113 37.3408C12.9072 37.4294 13.5089 37.4739 14.1113 37.4741C15.5809 37.4316 17.03 37.1176 18.3854 36.5482C19.8164 35.9362 21.1106 35.0443 22.1919 33.9248C23.2732 32.8054 24.1197 31.4811 24.6817 30.0297L24.8076 29.7037C24.8076 29.5926 24.9336 29.3038 24.9706 29.2C25.0373 28.9334 25.1336 28.6148 25.1854 28.3482C25.1854 28.2519 25.2447 28.1037 25.2595 28.0074C25.345 27.495 25.4019 26.9781 25.4298 26.4593C25.4298 26.3408 25.4298 26.0593 25.4298 25.9334V25.8519C25.0447 25.8519 24.6891 25.8 24.2891 25.7556C21.2837 25.3861 18.5324 23.8846 16.5957 21.5569C14.659 19.2293 13.6829 16.2507 13.8661 13.2283C14.0493 10.2058 15.3782 7.36703 17.5819 5.29038C19.7856 3.21373 22.6982 2.05555 25.7261 2.05188H25.7113ZM8.99281 32.2148C8.5359 31.8319 8.10298 31.4213 7.69651 30.9852C5.97113 29.1497 4.64458 26.9767 3.80041 24.6032C2.95625 22.2297 2.61276 19.7071 2.7916 17.1943C2.97044 14.6815 3.66773 12.233 4.83954 10.003C6.01134 7.77293 7.63228 5.80975 9.60022 4.23707C9.74837 4.11115 9.98541 3.94818 10.1336 3.83707C10.7256 3.39713 11.344 2.9939 11.9854 2.62965C14.0444 1.48263 16.3102 0.755045 18.6521 0.488924L19.5187 0.414846H20.3928H21.2595L20.3928 0.48151L19.5336 0.592616L18.6817 0.733359C16.1 1.20551 13.6517 2.23338 11.5067 3.74572C9.36165 5.25806 7.57109 7.21871 6.25909 9.49181C4.94709 11.7649 4.14501 14.2961 3.90846 16.91C3.6719 19.5239 4.00652 22.1579 4.88911 24.6297C5.6079 26.6249 6.67645 28.476 8.04466 30.0963L8.178 30.2593L8.24467 30.3408L8.31873 30.4149C8.68665 30.8383 9.07998 31.2391 9.49652 31.6148C10.9981 32.9222 12.8443 33.7697 14.8146 34.056C16.7849 34.3424 18.796 34.0555 20.6076 33.2297C18.793 34.2443 16.7152 34.69 14.6441 34.509C12.573 34.3281 10.604 33.5288 8.99281 32.2148ZM11.4891 28.8223L11.3558 28.6815L11.2817 28.6149L10.7854 28.1112C9.29725 26.536 8.14085 24.6779 7.38493 22.647C6.629 20.6162 6.28897 18.4542 6.38501 16.2894C6.48106 14.1246 7.01123 12.0011 7.94403 10.0452C8.87683 8.08935 10.1932 6.34089 11.815 4.90373C12.3196 4.46084 12.8515 4.05014 13.4076 3.6741C13.7187 3.46669 14.1039 3.21485 14.4298 3.03707C14.7558 2.8593 15.1706 2.64447 15.4965 2.4741C15.6224 2.40744 15.7409 2.3704 15.8595 2.31114C15.978 2.25188 16.3039 2.11114 16.415 2.0741C17.7145 1.55851 19.0773 1.21969 20.4669 1.0667C20.6743 1.0667 21.0447 1.00744 21.2521 1.00004H21.8447C22.4382 0.99144 23.0317 1.01618 23.6224 1.07412C22.7064 1.08505 21.7926 1.16676 20.8891 1.31855C18.2882 1.74671 15.831 2.80307 13.7308 4.39597C11.6307 5.98886 9.95088 8.07016 8.83726 10.4593C7.67827 13.013 7.21512 15.8277 7.49481 18.6181C7.7745 21.4085 8.78708 24.0753 10.4298 26.3482C10.5558 26.5037 10.7632 26.8 10.8965 26.9556C11.1187 27.2297 11.4002 27.563 11.6373 27.8223C12.9598 29.3167 14.7437 30.3266 16.7057 30.6916C18.6676 31.0567 20.6953 30.7559 22.4669 29.8371C19.1558 32.1704 14.4002 31.5186 11.4891 28.8223ZM13.4965 23.4889C14.1237 24.3936 14.8713 25.2086 15.7187 25.9112C16.76 26.7536 17.9912 27.3289 19.3054 27.5871C20.6196 27.8453 21.977 27.7785 23.2595 27.3926C22.194 27.8553 21.0398 28.0778 19.8788 28.0445C18.7177 28.0113 17.5782 27.7229 16.541 27.2C15.4794 26.6782 14.5266 25.9592 13.7336 25.0815C12.3695 23.6094 11.3361 21.8625 10.7026 19.9581C10.0692 18.0538 9.85034 16.0359 10.0608 14.04C10.2713 12.0441 10.9062 10.1163 11.9229 8.38597C12.9396 6.65561 14.3147 5.16272 15.9558 4.00744C16.1187 3.88893 16.3706 3.73338 16.5484 3.62227C16.8743 3.40745 17.2891 3.20004 17.6076 3.01485C17.9261 2.82967 18.1558 2.74819 18.4002 2.64448C19.8968 2.00893 21.4946 1.64521 23.1187 1.5704C23.4521 1.5704 23.815 1.5704 24.1484 1.5704H24.3187H24.4965L25.0076 1.61484C25.2891 1.61484 25.5706 1.68891 25.8521 1.72595C25.5706 1.72595 25.2891 1.72595 25.0002 1.72595H24.3262C23.0352 1.80773 21.7604 2.05672 20.5336 2.46669C18.4826 3.13286 16.6164 4.27067 15.0848 5.78874C13.5532 7.30682 12.3989 9.16288 11.7146 11.2079C11.0303 13.2529 10.8351 15.4298 11.1445 17.564C11.454 19.6981 12.2595 21.7299 13.4965 23.4963V23.4889Z" fill="#010101"></path><path d="M14.7703 14.2221L14.3555 14.1851V14.2221C14.6765 14.2221 14.995 14.2443 15.311 14.2888L14.7703 14.2221Z" fill="#010101"></path><path d="M32.4223 35.4741C32.5853 35.3482 33.0445 34.9334 33.2223 34.7852L33.9631 34.0445L34.7038 33.3037C34.8742 33.1037 35.2297 32.6963 35.3853 32.4963L35.9186 31.8C36.0594 31.6074 36.3853 31.126 36.5186 30.9334L36.8001 30.4815C36.8445 30.4223 36.9927 30.1704 37.0297 30.1111C37.0668 30.0519 37.4149 29.4223 37.4964 29.2667C37.5779 29.1112 37.8594 28.526 37.9631 28.3186C38.0668 28.1112 38.2075 27.7482 38.3112 27.5112C38.3112 27.4297 38.5779 26.7704 38.6149 26.6889C38.6519 26.6074 38.7779 26.2149 38.8371 26.0223C38.9631 25.6519 39.0742 25.2223 39.1779 24.8445C39.2371 24.6149 39.3482 24.0445 39.4075 23.8148V23.6445C40.2729 18.9303 39.4244 14.062 37.0149 9.91857C36.7705 9.51116 36.4371 8.97041 36.1557 8.58522C36.052 8.42967 35.8668 8.16301 35.7482 8.01486L35.3186 7.45931C35.1705 7.28893 34.7779 6.81486 34.6297 6.6519C34.4816 6.48894 34.1408 6.12597 33.889 5.91116C33.7557 5.78523 33.526 5.54818 33.3853 5.42966L33.1186 5.20745L33.052 5.1482L32.9853 5.09634L32.8445 4.98523C32.6816 4.84449 32.4668 4.69635 32.289 4.57042L32.1408 4.47412L32.0001 4.37782C31.8371 4.27412 31.5705 4.10375 31.4001 4.01487C31.2297 3.92598 31.1779 3.88152 31.0964 3.84449L30.6297 3.61486L30.1482 3.40004C29.8001 3.2593 29.4075 3.13338 29.0816 3.01486L28.489 2.85931L27.9779 2.74079L27.4593 2.65188C26.8634 2.5633 26.2618 2.51874 25.6594 2.51855C24.1898 2.56111 22.7407 2.87503 21.3853 3.44448C19.9543 4.05644 18.6601 4.94837 17.5788 6.06782C16.4975 7.18726 15.651 8.51163 15.089 9.96301L14.9631 10.2963C14.926 10.4 14.8371 10.6889 14.8001 10.7926C14.726 11.0593 14.6371 11.3778 14.5853 11.6445C14.5853 11.7408 14.526 11.8889 14.5112 11.9852C14.4162 12.5042 14.3544 13.0287 14.326 13.5556C14.326 13.6741 14.326 13.963 14.326 14.0815V14.2001C15.8941 14.218 17.4429 14.5484 18.8818 15.1718C20.3208 15.7953 21.621 16.6993 22.7066 17.8311C23.7921 18.9628 24.6412 20.2996 25.2041 21.7633C25.7671 23.2269 26.0326 24.7881 25.9853 26.3556C25.9001 28.3304 25.3344 30.2545 24.3371 31.9611C23.3399 33.6677 21.9413 35.1052 20.2627 36.1489C18.5841 37.1925 16.6762 37.8108 14.7045 37.9501C12.7328 38.0894 10.7569 37.7455 8.94824 36.9482C10.1466 37.7055 11.4231 38.3313 12.7556 38.8148C16.0421 40.0107 19.583 40.3316 23.0309 39.7459C26.4788 39.1602 29.7151 37.6882 32.4223 35.4741ZM30.7927 7.7556C31.2527 8.14026 31.6905 8.5508 32.1038 8.98523C35.4097 12.5059 37.1876 17.192 37.0488 22.0195C36.91 26.847 34.8658 31.4233 31.3631 34.7482C31.1853 34.9112 30.8964 35.1926 30.7038 35.3408L30.3631 35.6223L30.1853 35.7704L30.1038 35.8371L29.6593 36.1704C29.0621 36.608 28.4388 37.0088 27.7927 37.3704L27.0075 37.7852C24.3689 39.0887 21.444 39.7053 18.5038 39.5778C23.263 39.3239 27.7424 37.25 31.0149 33.7852C33.9293 30.6869 35.6506 26.6556 35.8731 22.4078C36.0955 18.16 34.8046 13.971 32.2297 10.5852C32.0742 10.363 31.8668 10.1334 31.6964 9.92596L31.5631 9.763L31.4964 9.68153L31.4297 9.60003C29.9776 7.84045 27.9858 6.60883 25.7628 6.09594C23.5398 5.58304 21.2097 5.8175 19.1334 6.76301C20.9509 5.7356 23.0362 5.28068 25.1164 5.45778C27.1967 5.63488 29.175 6.43575 30.7927 7.7556ZM27.8297 10.7186C28.0668 10.9037 28.3038 11.126 28.526 11.326C30.4302 13.1569 31.8556 15.4274 32.6771 17.938C33.4986 20.4486 33.6911 23.1225 33.2376 25.7249C32.7841 28.3273 31.6986 30.7785 30.0763 32.8633C28.454 34.948 26.3446 36.6026 23.9334 37.6815L23.5631 37.8371L23.4742 37.8741L23.3779 37.9111L23.1927 37.9852C23.0001 38.0519 22.6445 38.1926 22.452 38.2519C20.4295 38.9071 18.2928 39.1341 16.1779 38.9186C17.2224 38.8996 18.2632 38.7905 19.289 38.5926C21.8081 38.102 24.1747 37.0202 26.1939 35.4362C28.2132 33.8522 29.8275 31.8113 30.9038 29.4815C32.0835 26.8759 32.5375 24.0001 32.2181 21.1578C31.8987 18.3154 30.8176 15.6121 29.089 13.3334C28.9557 13.1482 28.7556 12.9186 28.6149 12.7408C28.4742 12.563 28.1779 12.2519 27.9779 12C26.6418 10.5653 24.8719 9.60853 22.9397 9.27668C21.0075 8.94484 19.0198 9.25621 17.2816 10.163C20.4149 7.94078 24.9112 8.38523 27.8371 10.7482L27.8297 10.7186ZM19.9038 37.2445L20.5186 36.9852L21.1186 36.6963C21.3482 36.5852 21.6223 36.4223 21.8593 36.2963L22.5631 35.8593C22.7631 35.7186 23.0445 35.526 23.2371 35.3778C25.9991 33.304 27.8793 30.2665 28.5038 26.8696C29.1283 23.4726 28.4513 19.965 26.6075 17.0445L26.2445 16.4963L25.852 15.9704L25.4371 15.4519C25.0182 14.949 24.5519 14.4876 24.0445 14.0741C23.0044 13.2352 21.7757 12.662 20.4645 12.4039C19.1534 12.1458 17.7991 12.2106 16.5186 12.5926C17.8114 12.0348 19.2274 11.824 20.6266 11.9812C22.0257 12.1384 23.3596 12.6581 24.4964 13.4889C25.2644 14.0404 25.9589 14.6876 26.5631 15.4149C28.0597 17.1749 29.098 19.2775 29.5856 21.5358C30.0732 23.7941 29.9949 26.1378 29.3578 28.3586C28.7207 30.5793 27.5445 32.608 25.9339 34.2643C24.3232 35.9206 22.3281 37.153 20.126 37.8519C18.1342 38.467 16.026 38.6066 13.9705 38.2593C15.9969 38.3344 18.0175 37.9993 19.9112 37.2741L19.9038 37.2445Z" fill="#010101"></path></g><defs><clipPath id="clip0_281_4998"><rect width="102.711" height="40" fill="white"></rect></clipPath></defs></svg>